<svg width="1150" height="307" viewBox="0 0 1150 307" fill="none" xmlns="http://www.w3.org/2000/svg">
<rect y="69" width="1150" height="238" rx="25" fill="#9EEBC3"/>
<path opacity="0.4" d="M857.469 112.573C862.603 112.573 866.766 108.407 866.766 103.268C866.766 98.1285 862.603 93.9624 857.469 93.9624C852.334 93.9624 848.172 98.1285 848.172 103.268C848.172 108.407 852.334 112.573 857.469 112.573Z" fill="#6C63FF"/>
<path opacity="0.4" d="M661.45 61.3793C668.77 61.3793 674.703 55.4405 674.703 48.1145C674.703 40.7885 668.77 34.8496 661.45 34.8496C654.131 34.8496 648.197 40.7885 648.197 48.1145C648.197 55.4405 654.131 61.3793 661.45 61.3793Z" fill="#6C63FF"/>
<path opacity="0.4" d="M636.922 63.7549C642.057 63.7549 646.219 59.5888 646.219 54.4497C646.219 49.3106 642.057 45.1445 636.922 45.1445C631.788 45.1445 627.625 49.3106 627.625 54.4497C627.625 59.5888 631.788 63.7549 636.922 63.7549Z" fill="#6C63FF"/>
<path d="M865.255 207.324C857.91 215.373 857.643 227.099 857.643 227.099C857.643 227.099 869.286 225.774 876.632 217.725C883.978 209.675 884.245 197.949 884.245 197.949C884.245 197.949 872.601 199.274 865.255 207.324Z" fill="#3F3D56"/>
<path d="M869.405 209.64C867.182 220.313 857.838 227.391 857.838 227.391C857.838 227.391 852.098 217.166 854.321 206.493C856.544 195.82 865.888 188.742 865.888 188.742C865.888 188.742 871.628 198.968 869.405 209.64Z" fill="#6C63FF"/>
<path d="M859.864 99.5132V226.74L817.493 261.774H600.722V128.401L663.972 99.5132H859.864Z" fill="#EAC4D5"/>
<path opacity="0.1" d="M859.864 99.5132V100.023L844.653 110.214L817.493 128.401H600.722L663.972 99.5132H859.864Z" fill="black"/>
<path opacity="0.1" d="M859.864 99.5132V226.74L817.493 261.774L817.8 128.093L844.653 110.214L859.619 99.5132H859.864Z" fill="black"/>
<path d="M802.755 117.03H670.727L680.552 111.498H807.053L802.755 117.03Z" fill="#2F2E41"/>
<path d="M916.704 268.694C916.704 268.694 919.263 279.407 916.936 279.873C914.61 280.339 903.208 280.188 900.416 280.654C897.624 281.12 891.807 280.339 891.807 278.243C891.807 276.147 897.856 274.749 897.856 274.749C897.856 274.749 906.466 270.092 906.698 269.859C906.931 269.626 916.704 268.694 916.704 268.694Z" fill="#2F2E41"/>
<path d="M914.61 205.581C914.61 205.581 913.912 213.5 913.912 214.198C913.912 214.897 914.61 225.843 913.912 226.309C913.214 226.774 914.377 230.035 914.377 231.199C914.377 232.364 918.1 251.694 917.169 259.146C916.238 266.599 918.565 265.9 917.867 266.599C917.169 267.297 917.169 267.297 917.169 268.695C917.169 270.092 909.723 271.256 909.723 271.256L901.579 219.788L905.768 204.417L914.61 205.581Z" fill="#575A89"/>
<path opacity="0.1" d="M914.61 205.581C914.61 205.581 913.912 213.5 913.912 214.198C913.912 214.897 914.61 225.843 913.912 226.309C913.214 226.774 914.377 230.035 914.377 231.199C914.377 232.364 918.1 251.694 917.169 259.146C916.238 266.599 918.565 265.9 917.867 266.599C917.169 267.297 917.169 267.297 917.169 268.695C917.169 270.092 909.723 271.256 909.723 271.256L901.579 219.788L905.768 204.417L914.61 205.581Z" fill="black"/>
<path d="M913.446 271.955C913.446 271.955 915.773 280.339 913.446 280.805C911.119 281.27 899.718 280.271 896.926 280.737C894.133 281.203 888.316 281.27 888.316 279.174C888.316 277.078 894.366 275.681 894.366 275.681C894.366 275.681 902.975 271.023 903.208 270.79C903.441 270.557 913.446 271.955 913.446 271.955Z" fill="#2F2E41"/>
<path d="M916.704 196.266C916.704 196.266 919.496 203.02 916.238 206.513C912.981 210.007 909.258 216.993 909.258 217.459C909.258 217.925 915.773 264.27 914.842 267.297C913.912 270.325 914.144 272.188 914.377 272.654C914.61 273.12 912.05 275.681 909.258 275.681C906.466 275.681 902.277 273.585 901.812 271.722C901.347 269.859 902.51 253.79 902.277 250.762C902.045 247.735 900.881 243.31 900.416 242.378C899.951 241.447 897.391 240.515 896.926 237.72C896.46 234.926 892.737 199.294 893.901 198.129C895.064 196.965 916.704 196.266 916.704 196.266Z" fill="#575A89"/>
<path d="M899.02 142.701C903.389 142.701 906.931 139.156 906.931 134.783C906.931 130.41 903.389 126.865 899.02 126.865C894.651 126.865 891.109 130.41 891.109 134.783C891.109 139.156 894.651 142.701 899.02 142.701Z" fill="#FFB9B9"/>
<path d="M903.906 138.742C903.906 138.742 902.277 147.359 903.441 148.29C904.604 149.222 894.599 150.619 894.599 150.619C894.599 150.619 893.435 139.208 893.203 138.043C892.97 136.879 903.906 138.742 903.906 138.742Z" fill="#FFB9B9"/>
<path d="M893.203 149.921C893.203 149.921 895.995 141.77 907.396 144.098C907.396 144.098 909.49 144.797 908.792 145.496C908.094 146.194 907.396 146.194 908.327 146.893C909.258 147.592 910.421 146.893 909.723 147.592C909.025 148.29 916.006 152.482 915.54 160.401C915.075 168.319 917.169 179.498 915.54 181.361C913.912 183.224 916.704 191.375 916.238 193.005C915.773 194.635 919.031 196.731 917.634 197.43C916.238 198.129 891.108 202.321 890.41 197.43C889.712 192.539 890.178 196.033 889.48 194.868C888.782 193.704 888.549 191.608 889.014 189.046C889.48 186.484 890.643 180.196 890.178 177.867C889.712 175.539 890.178 155.976 891.574 153.647C892.97 151.318 893.203 149.921 893.203 149.921Z" fill="#6C63FF"/>
<path d="M898.089 206.746C898.089 206.746 901.579 220.021 897.158 220.021C892.737 220.021 892.97 206.28 892.97 206.28L898.089 206.746Z" fill="#FFB9B9"/>
<path d="M895.53 134.783C895.53 135.458 896.507 135.887 898.022 135.985H898.024C898.666 136.021 899.31 136.009 899.951 135.947C900.919 135.859 901.319 136.77 901.484 137.971C901.754 139.953 901.377 142.732 901.812 143.167C902.412 143.768 906.789 143.165 908.157 141.802C908.37 141.611 908.512 141.353 908.56 141.071C908.703 140.239 909.113 139.476 909.728 138.898C910.535 138.016 911.685 137.037 912.981 135.482C915.308 132.687 912.981 132.454 912.283 130.358C911.585 128.262 910.421 127.563 910.421 126.166C910.421 124.769 905.07 123.604 900.649 123.837C896.228 124.07 897.158 129.659 897.158 129.659C897.158 129.659 896.896 130.335 896.581 131.206C896.156 132.299 895.811 133.421 895.548 134.564C895.537 134.637 895.531 134.71 895.53 134.783Z" fill="#2F2E41"/>
<path opacity="0.1" d="M896.46 153.414C896.46 153.414 904.372 152.948 905.07 164.593C905.768 176.237 905.535 187.183 905.535 187.416C905.535 187.649 902.277 209.773 899.253 209.773C896.228 209.773 893.901 209.308 893.203 208.143C892.505 206.979 895.064 190.211 895.064 190.211C895.064 190.211 896.228 172.511 894.366 166.922C892.505 161.332 892.272 154.113 896.46 153.414Z" fill="black"/>
<path d="M895.297 152.25C895.297 152.25 903.208 151.784 903.906 163.428C904.604 175.073 904.371 186.019 904.371 186.252C904.371 186.484 901.114 208.609 898.089 208.609C895.064 208.609 892.737 208.143 892.039 206.979C891.341 205.814 893.901 189.046 893.901 189.046C893.901 189.046 895.064 171.347 893.203 165.757C891.341 160.168 891.109 152.948 895.297 152.25Z" fill="#6C63FF"/>
<path d="M764.111 38.4103C764.111 38.4103 760.663 28.633 758.173 31.7004C755.683 34.7678 762.004 39.944 762.004 39.944L764.111 38.4103Z" fill="#A0616A"/>
<path d="M780.392 28.8247L778.318 29.594C778.318 29.594 777.328 34.0009 777.711 34.7678C778.094 35.5346 778.285 34.9595 777.711 36.4932C777.136 38.0269 775.412 42.0528 775.221 42.628C775.029 43.2031 764.111 38.9854 764.111 36.8766C764.111 36.8766 761.813 39.5606 760.663 40.1357C760.663 40.1357 773.305 49.3379 775.029 50.4881C776.753 51.6384 777.711 51.0633 779.243 49.7213C780.775 48.3793 787.288 37.26 787.288 37.26L780.392 28.8247Z" fill="#575A89"/>
<path d="M774.837 96.8823C774.837 96.8823 775.029 98.9911 775.412 99.1828C775.795 99.3745 778.668 104.167 775.412 105.126C772.156 106.084 770.24 105.701 769.474 106.084C768.708 106.468 755.3 107.235 755.109 105.126C754.917 103.017 761.621 102.634 761.621 102.634C761.621 102.634 767.75 98.6077 768.708 96.4988C769.666 94.39 774.837 96.8823 774.837 96.8823Z" fill="#2F2E41"/>
<path d="M813.721 100.717C813.721 100.717 818.318 108.577 817.168 109.536C816.019 110.494 804.827 113.987 803.186 114.137C801.079 114.328 799.547 112.603 801.27 111.644C802.994 110.686 806.634 106.66 806.634 105.318V101.867L813.721 100.717Z" fill="#2F2E41"/>
<path d="M818.126 49.3379C818.126 49.3379 822.149 54.3224 815.828 62.3743L805.293 75.7941C805.293 75.7941 811.805 86.1466 811.997 91.5145C812.188 96.8824 813.529 95.7322 813.912 98.0327C814.295 100.333 816.019 99.183 814.678 100.908C813.338 102.634 808.357 104.167 806.825 102.826C806.298 102.343 805.886 101.748 805.621 101.084C805.356 100.42 805.244 99.7046 805.293 98.9913C805.293 98.2244 802.611 93.8151 802.42 92.4731C802.228 91.1311 795.141 80.2035 795.141 80.2035C795.141 80.2035 792.843 73.6853 795.524 70.0428C798.206 66.4002 799.978 61.2341 799.978 61.2341C799.978 61.2341 792.076 70.8096 786.522 73.1102C786.522 73.1102 784.415 73.4936 784.798 74.4522C785.181 75.4107 784.798 75.9858 784.223 76.9444C783.649 77.903 779.626 89.0223 778.285 91.8979C776.945 94.7736 777.519 96.499 775.987 97.4576C774.454 98.4162 767.559 97.6493 767.559 96.6907C767.559 95.7322 768.517 93.24 769.091 91.8979C769.666 90.5559 774.263 75.0273 773.88 72.3433C773.497 69.6594 774.071 66.0168 776.945 64.4831C779.818 62.9494 794.375 50.4882 795.141 50.4882C795.907 50.4882 818.126 49.3379 818.126 49.3379Z" fill="#2F2E41"/>
<path d="M779.626 19.2391C784.069 19.2391 787.671 15.6341 787.671 11.1872C787.671 6.74021 784.069 3.13525 779.626 3.13525C775.183 3.13525 771.581 6.74021 771.581 11.1872C771.581 15.6341 775.183 19.2391 779.626 19.2391Z" fill="#A0616A"/>
<path d="M786.138 11.9539C786.138 11.9539 788.629 16.3632 791.693 16.9384C794.758 17.5135 783.648 26.3323 783.648 26.3323C783.648 26.3323 780.967 17.8969 778.668 17.5135C776.37 17.1301 786.138 11.9539 786.138 11.9539Z" fill="#A0616A"/>
<path d="M778.285 29.9751C778.285 32.4674 785.755 39.5607 785.755 39.5607L792.842 45.5038C792.842 45.5038 793.034 47.6126 793.8 47.8043C794.566 47.996 795.524 47.996 794.758 49.1463C793.992 50.2966 792.076 52.7888 793.8 53.1723C794.32 53.2514 794.844 53.3013 795.369 53.3218C795.829 53.3486 796.369 53.3736 796.976 53.3966C798.393 53.4464 800.167 53.479 802.088 53.4656C802.634 53.4637 803.19 53.4573 803.755 53.4464C810.997 53.3026 819.386 52.4687 818.701 49.7215C817.551 45.1204 818.318 43.5867 815.828 41.0944C813.338 38.6022 809.315 29.9751 809.315 29.9751C809.315 29.9751 801.27 16.3636 794.566 16.3636L793.174 15.9974C792.527 15.8268 791.843 15.8642 791.218 16.1044C790.593 16.3445 790.06 16.7752 789.694 17.3355C788.349 19.3849 786.229 22.4638 784.989 23.4569C783.074 24.9906 782.775 23.8902 782.775 23.8902C782.775 23.8902 778.285 27.4829 778.285 29.9751Z" fill="#575A89"/>
<path d="M795.332 59.1152C795.332 59.1152 789.778 67.7423 793.225 69.276C796.673 70.8097 798.589 60.2655 798.589 60.2655L795.332 59.1152Z" fill="#A0616A"/>
<path d="M784.885 10.2777C784.577 10.2387 784.479 9.8488 784.427 9.54169C784.149 7.89714 782.924 6.33766 781.279 6.07218C780.65 5.98844 780.011 6.04002 779.403 6.22347C778.533 6.46242 777.717 6.86478 776.997 7.40911C776.645 7.73137 776.237 7.98742 775.794 8.16498C775.492 8.2537 774.21 8.82405 773.911 8.92055C773.253 9.13272 772.708 9.8225 772.03 9.68593C771.381 9.55527 771.134 8.77115 771.03 8.11707C770.793 6.62693 771.645 4.40351 772.492 3.15534C773.135 2.20815 774.223 1.66304 775.311 1.3084C776.585 0.921206 777.895 0.660777 779.22 0.530896C781.01 0.319378 782.863 0.207157 784.578 0.760757C786.293 1.31436 787.854 2.66859 788.174 4.44333C788.241 4.81302 788.254 5.19169 788.335 5.55835C788.535 6.45281 789.126 7.20465 789.471 8.05358C789.72 8.67706 789.835 9.34581 789.81 10.0167C789.785 10.6876 789.619 11.3458 789.324 11.9488C788.847 12.9101 788.016 13.834 788.195 14.8925L786.717 13.726C786.504 13.6045 786.338 13.4134 786.248 13.1845C786.159 12.9556 786.15 12.7029 786.224 12.4684L786.439 10.616C786.513 10.2804 786.48 9.9298 786.343 9.61442C785.686 8.46579 785.4 10.3427 784.885 10.2777Z" fill="#2F2E41"/>
<path opacity="0.1" d="M798.78 45.8871L796.976 53.3965C798.796 53.4616 801.203 53.4962 803.755 53.4463C804.398 51.5139 805.013 49.499 805.484 47.6125C807.208 40.7109 804.335 30.1667 802.803 25.1822C801.27 20.1977 797.439 18.8557 797.439 18.8557C795.869 19.4085 794.385 20.1832 793.034 21.1563C790.544 22.8817 798.78 45.8871 798.78 45.8871Z" fill="black"/>
<path opacity="0.1" d="M797.248 45.5036L795.369 53.3216C795.829 53.3485 796.369 53.3734 796.976 53.3964C798.393 53.4462 800.167 53.4788 802.088 53.4654C802.78 51.4122 803.448 49.2458 803.952 47.229C805.676 40.3274 802.803 29.7832 801.27 24.7987C799.738 19.8142 796.386 25.278 796.386 25.278C796.386 25.278 797.727 22.0189 795.237 23.7443C792.747 25.4697 797.248 45.5036 797.248 45.5036Z" fill="black"/>
<path d="M796.673 18.4722C796.673 18.4722 800.504 19.8141 802.037 24.7987C803.569 29.7832 806.442 40.3273 804.718 47.2289C802.994 54.1306 799.355 62.7576 799.355 62.7576C799.355 62.7576 795.716 60.0736 794.375 60.6488L798.014 45.5035C798.014 45.5035 789.778 22.4981 792.268 20.7727C793.619 19.7997 795.103 19.025 796.673 18.4722Z" fill="#575A89"/>
<path d="M799.529 114.633L746.535 4.10474L657.926 46.6642L690.514 114.633H799.529Z" fill="#F2F2F2"/>
<path d="M728.602 47.4896L681.539 70.0945L682.94 73.0183L730.004 50.4134L728.602 47.4896Z" fill="#4DAF7C"/>
<path d="M741.063 73.4789L693.999 96.0837L695.401 99.0075L742.464 76.4027L741.063 73.4789Z" fill="#4DAF7C"/>
<path d="M749.622 32.1978L737.937 37.8101L743.545 49.5052L755.229 43.8929L749.622 32.1978Z" fill="#3F3D56"/>
<path d="M762.083 58.1871L750.398 63.7993L756.005 75.4944L767.69 69.8822L762.083 58.1871Z" fill="#3F3D56"/>
<path d="M750.427 24.0972L745.615 37.801L739.128 35.5189L738.24 38.0468L747.245 41.214L752.953 24.9857L750.427 24.0972Z" fill="#57B894"/>
<path d="M762.888 50.0862L758.076 63.79L751.589 61.5083L750.701 64.0358L759.705 67.203L765.413 50.9747L762.888 50.0862Z" fill="#57B894"/>
<path d="M535.114 241.845L559.056 236.726L553.942 212.763L530 217.882L535.114 241.845Z" fill="#F2F2F2"/>
<path d="M558.39 206.36C558.39 206.36 549.596 212.647 552.528 215.162C555.459 217.677 561.322 207.618 561.322 207.618L558.39 206.36Z" fill="#A0616A"/>
<path d="M599.01 216C599.01 216 597.335 236.957 596.916 239.891C596.498 242.825 596.079 269.23 595.241 272.164C594.404 275.098 593.566 282.223 593.566 282.223H588.541C588.541 282.223 588.96 269.23 587.704 264.2C586.447 259.171 586.866 245.339 586.866 245.339C586.866 245.339 584.354 220.611 585.61 217.257C586.866 213.904 599.01 216 599.01 216Z" fill="#A0616A"/>
<path d="M592.31 280.966C592.31 280.966 594.404 282.223 594.404 283.061C594.404 283.9 593.985 285.995 594.404 286.834C594.823 287.672 597.754 291.025 596.079 291.863C594.404 292.701 586.866 291.863 586.866 291.863C586.866 291.863 587.285 285.995 587.704 285.576C588.122 285.157 587.285 280.966 587.285 280.966H592.31Z" fill="#2F2E41"/>
<path d="M566.998 215.487C566.998 215.487 566.466 236.504 566.575 239.465C566.684 242.427 564.331 268.73 564.856 271.736C565.382 274.742 565.467 281.916 565.467 281.916L570.465 282.444C570.465 282.444 571.411 269.478 573.188 264.608C574.964 259.739 575.998 245.94 575.998 245.94C575.998 245.94 581.091 221.612 580.193 218.145C579.295 214.679 566.998 215.487 566.998 215.487Z" fill="#A0616A"/>
<path d="M566.848 280.797C566.848 280.797 564.634 281.827 564.546 282.661C564.459 283.495 564.655 285.623 564.151 286.412C563.646 287.202 560.38 290.229 561.958 291.238C563.535 292.248 571.119 292.206 571.119 292.206C571.119 292.206 571.318 286.327 570.946 285.866C570.573 285.405 571.846 281.325 571.846 281.325L566.848 280.797Z" fill="#2F2E41"/>
<path d="M593.148 184.565C593.148 184.565 596.498 184.985 597.754 192.11C599.01 199.235 603.617 217.258 599.848 218.515C596.079 219.772 584.772 222.287 584.354 221.449C583.935 220.611 583.097 218.515 583.097 218.515C583.097 218.515 584.354 222.287 582.679 222.287C581.004 222.287 564.672 219.772 565.091 218.515C565.509 217.258 566.347 208.037 566.347 208.037C566.347 208.037 568.86 192.529 571.372 190.014C572.099 189.315 572.664 188.465 573.026 187.523C573.387 186.582 573.538 185.572 573.466 184.565H593.148Z" fill="#2F2E41"/>
<path d="M599.429 181.212C599.429 181.212 593.985 179.955 593.148 181.632C592.31 183.308 595.241 185.823 596.498 185.823C597.754 185.823 599.848 184.566 599.848 184.566L599.429 181.212Z" fill="#A0616A"/>
<path d="M588.122 145.586C592.285 145.586 595.66 142.209 595.66 138.042C595.66 133.875 592.285 130.498 588.122 130.498C583.96 130.498 580.585 133.875 580.585 138.042C580.585 142.209 583.96 145.586 588.122 145.586Z" fill="#A0616A"/>
<path d="M586.866 143.491C586.866 143.491 585.61 149.358 586.447 149.358C587.285 149.358 580.166 153.131 580.166 153.131L574.722 152.292L573.047 149.777C573.047 149.777 581.841 143.91 581.841 140.557C581.841 137.204 586.866 143.491 586.866 143.491Z" fill="#A0616A"/>
<path d="M583.097 149.358C583.097 149.358 584.354 148.52 584.772 148.52H588.122C588.541 148.52 593.985 149.777 593.985 149.777L597.335 168.638C597.335 168.638 591.472 178.278 595.66 185.823C595.66 185.823 594.404 184.984 588.541 185.404C582.678 185.823 572.209 187.08 571.791 187.08C571.372 187.08 571.372 183.727 571.791 182.889C572.209 182.051 571.372 182.47 571.372 180.374C571.372 178.278 570.116 174.506 570.116 174.506L564.253 153.13C564.253 153.13 571.791 148.939 573.047 149.358C574.303 149.777 578.072 151.035 578.91 150.616C579.747 150.196 583.097 149.358 583.097 149.358Z" fill="white"/>
<path d="M592.729 150.197L593.985 149.777C593.985 149.777 596.498 149.358 599.429 151.873C602.36 154.388 613.248 161.932 613.248 161.932C613.248 161.932 617.436 165.285 616.179 169.057C614.923 172.83 612.829 182.051 606.548 181.631C606.548 181.631 602.779 186.661 600.685 185.823C598.592 184.984 596.916 181.631 598.173 181.212C599.429 180.793 602.779 176.602 602.779 176.602L598.592 168.638H597.335L592.729 166.124L592.729 150.197Z" fill="#809BCE"/>
<path d="M567.603 152.711L564.253 153.13C564.253 153.13 561.322 154.388 561.741 159.836C562.159 165.285 559.228 190.014 560.484 192.948C560.484 192.948 556.297 207.198 557.134 207.617C557.972 208.037 562.997 210.551 562.578 208.875C562.159 207.198 567.184 195.463 567.184 195.463C567.184 195.463 573.047 189.176 570.535 180.374V173.249L567.603 152.711Z" fill="#809BCE"/>
<path d="M594.396 145.336L589.072 146.497L588.388 143.873L588.651 146.588L580.063 148.461L579.685 147.013L579.831 148.512L574.33 149.711L573.153 138.406C571.944 133.767 576.359 128.822 580.994 127.611L583.05 127.074C586.454 126.185 592.642 126.993 593.531 130.401C591.976 136.341 589.325 142.854 594.396 145.336Z" fill="#2F2E41"/>
</svg>
